<svg xmlns="http://www.w3.org/2000/svg" xmlns:xlink="http://www.w3.org/1999/xlink" width="fill" zoomAndPan="magnify" viewBox="0 0 116.25 90.75" height="fill" preserveAspectRatio="xMidYMid meet" version="1.0"><defs><g/><clipPath id="eaf2de16df"><path d="M 13 0.273438 L 103 0.273438 L 103 56 L 13 56 Z M 13 0.273438 " clip-rule="nonzero"/></clipPath><clipPath id="7e1ee969df"><path d="M 7.253906 59 L 108.601562 59 L 108.601562 62.867188 L 7.253906 62.867188 Z M 7.253906 59 " clip-rule="nonzero"/></clipPath><clipPath id="4a280a8a9a"><path d="M 7 87 L 109 87 L 109 90.335938 L 7 90.335938 Z M 7 87 " clip-rule="nonzero"/></clipPath></defs><g clip-path="url(#eaf2de16df)"><path fill="#000000" d="M 52.84375 0.273438 C 51.136719 0.273438 49.753906 1.65625 49.753906 3.363281 C 49.753906 5.070312 51.136719 6.453125 52.84375 6.453125 C 53.214844 6.453125 53.515625 6.753906 53.515625 7.125 L 53.515625 8.359375 C 53.515625 8.703125 53.257812 8.992188 52.917969 9.027344 C 30.503906 11.621094 13.074219 31.3125 13.074219 55.226562 L 102.828125 55.226562 C 102.828125 31.3125 85.398438 11.621094 62.984375 9.027344 C 62.644531 8.992188 62.382812 8.703125 62.382812 8.359375 L 62.382812 7.125 C 62.382812 6.753906 62.683594 6.453125 63.054688 6.453125 C 64.761719 6.453125 66.144531 5.070312 66.144531 3.363281 C 66.144531 1.65625 64.761719 0.273438 63.054688 0.273438 Z M 52.84375 3.230469 L 63.054688 3.230469 C 63.128906 3.230469 63.191406 3.289062 63.191406 3.363281 C 63.191406 3.4375 63.128906 3.496094 63.054688 3.496094 C 61.054688 3.496094 59.429688 5.125 59.429688 7.125 L 59.429688 8.359375 C 59.429688 10.203125 60.808594 11.753906 62.644531 11.964844 C 72.804688 13.140625 82.195312 18.148438 89.078125 26.070312 C 95.402344 33.34375 99.140625 42.554688 99.773438 52.269531 L 16.125 52.269531 C 16.757812 42.554688 20.5 33.34375 26.820312 26.070312 C 33.707031 18.148438 43.09375 13.140625 53.257812 11.964844 C 55.089844 11.753906 56.472656 10.203125 56.472656 8.359375 L 56.472656 7.125 C 56.472656 5.125 54.84375 3.496094 52.84375 3.496094 C 52.769531 3.496094 52.710938 3.4375 52.710938 3.363281 C 52.710938 3.289062 52.769531 3.230469 52.84375 3.230469 " fill-opacity="1" fill-rule="nonzero"/></g><path fill="#000000" d="M 62.542969 14.542969 C 79.742188 15.355469 93.535156 29.175781 94.304688 46.382812 L 85.839844 46.382812 C 85.839844 31.460938 76.050781 18.824219 62.542969 14.542969 " fill-opacity="1" fill-rule="nonzero"/><g clip-path="url(#7e1ee969df)"><path fill="#000000" d="M 8.65625 62.75 L 107.242188 62.75 C 107.996094 62.75 108.605469 62.140625 108.605469 61.390625 L 108.605469 60.617188 C 108.605469 59.867188 107.996094 59.257812 107.242188 59.257812 L 8.65625 59.257812 C 7.90625 59.257812 7.296875 59.867188 7.296875 60.617188 L 7.296875 61.390625 C 7.296875 62.140625 7.90625 62.75 8.65625 62.75 " fill-opacity="1" fill-rule="nonzero"/></g><g fill="#000000" fill-opacity="1"><g transform="translate(22.564346, 75.401595)"><g><path d="M 4.203125 0 C 4.179688 -0.0703125 4.160156 -0.140625 4.140625 -0.203125 C 4.117188 -0.265625 4.097656 -0.34375 4.078125 -0.4375 C 4.066406 -0.53125 4.054688 -0.648438 4.046875 -0.796875 C 4.046875 -0.941406 4.046875 -1.125 4.046875 -1.34375 L 4.046875 -3.046875 C 4.046875 -3.554688 3.957031 -3.914062 3.78125 -4.125 C 3.601562 -4.332031 3.316406 -4.4375 2.921875 -4.4375 L 2.328125 -4.4375 L 2.328125 0 L 0.625 0 L 0.625 -10.875 L 3.203125 -10.875 C 4.097656 -10.875 4.742188 -10.664062 5.140625 -10.25 C 5.535156 -9.84375 5.734375 -9.21875 5.734375 -8.375 L 5.734375 -7.53125 C 5.734375 -6.40625 5.363281 -5.664062 4.625 -5.3125 C 5.050781 -5.132812 5.34375 -4.847656 5.5 -4.453125 C 5.664062 -4.054688 5.75 -3.570312 5.75 -3 L 5.75 -1.328125 C 5.75 -1.054688 5.757812 -0.816406 5.78125 -0.609375 C 5.800781 -0.410156 5.851562 -0.207031 5.9375 0 Z M 2.328125 -9.328125 L 2.328125 -5.984375 L 3 -5.984375 C 3.320312 -5.984375 3.570312 -6.066406 3.75 -6.234375 C 3.9375 -6.398438 4.03125 -6.703125 4.03125 -7.140625 L 4.03125 -8.203125 C 4.03125 -8.597656 3.957031 -8.882812 3.8125 -9.0625 C 3.675781 -9.238281 3.457031 -9.328125 3.15625 -9.328125 Z M 2.328125 -9.328125 "/></g></g></g><g fill="#000000" fill-opacity="1"><g transform="translate(29.93205, 75.401595)"><g><path d="M 2.328125 -6.296875 L 4.671875 -6.296875 L 4.671875 -4.734375 L 2.328125 -4.734375 L 2.328125 -1.546875 L 5.28125 -1.546875 L 5.28125 0 L 0.625 0 L 0.625 -10.875 L 5.28125 -10.875 L 5.28125 -9.328125 L 2.328125 -9.328125 Z M 2.328125 -6.296875 "/></g></g></g><g fill="#000000" fill-opacity="1"><g transform="translate(36.771299, 75.401595)"><g><path d="M 0.40625 -8.265625 C 0.40625 -9.148438 0.613281 -9.828125 1.03125 -10.296875 C 1.445312 -10.765625 2.078125 -11 2.921875 -11 C 3.765625 -11 4.394531 -10.765625 4.8125 -10.296875 C 5.226562 -9.828125 5.4375 -9.148438 5.4375 -8.265625 L 5.4375 -7.84375 L 3.828125 -7.84375 L 3.828125 -8.375 C 3.828125 -8.769531 3.75 -9.046875 3.59375 -9.203125 C 3.445312 -9.367188 3.238281 -9.453125 2.96875 -9.453125 C 2.695312 -9.453125 2.484375 -9.367188 2.328125 -9.203125 C 2.179688 -9.046875 2.109375 -8.769531 2.109375 -8.375 C 2.109375 -8 2.191406 -7.671875 2.359375 -7.390625 C 2.523438 -7.109375 2.734375 -6.835938 2.984375 -6.578125 C 3.234375 -6.328125 3.5 -6.070312 3.78125 -5.8125 C 4.070312 -5.5625 4.335938 -5.285156 4.578125 -4.984375 C 4.828125 -4.691406 5.035156 -4.351562 5.203125 -3.96875 C 5.367188 -3.582031 5.453125 -3.128906 5.453125 -2.609375 C 5.453125 -1.734375 5.238281 -1.054688 4.8125 -0.578125 C 4.382812 -0.109375 3.75 0.125 2.90625 0.125 C 2.0625 0.125 1.425781 -0.109375 1 -0.578125 C 0.570312 -1.054688 0.359375 -1.734375 0.359375 -2.609375 L 0.359375 -3.359375 L 1.96875 -3.359375 L 1.96875 -2.5 C 1.96875 -2.101562 2.046875 -1.828125 2.203125 -1.671875 C 2.367188 -1.523438 2.585938 -1.453125 2.859375 -1.453125 C 3.128906 -1.453125 3.34375 -1.523438 3.5 -1.671875 C 3.664062 -1.828125 3.75 -2.101562 3.75 -2.5 C 3.75 -2.875 3.664062 -3.203125 3.5 -3.484375 C 3.332031 -3.773438 3.125 -4.046875 2.875 -4.296875 C 2.625 -4.546875 2.351562 -4.796875 2.0625 -5.046875 C 1.78125 -5.304688 1.515625 -5.585938 1.265625 -5.890625 C 1.023438 -6.191406 0.820312 -6.535156 0.65625 -6.921875 C 0.488281 -7.304688 0.40625 -7.753906 0.40625 -8.265625 Z M 0.40625 -8.265625 "/></g></g></g><g fill="#000000" fill-opacity="1"><g transform="translate(43.703801, 75.401595)"><g><path d="M 0.15625 -10.875 L 5.4375 -10.875 L 5.4375 -9.328125 L 3.65625 -9.328125 L 3.65625 0 L 1.9375 0 L 1.9375 -9.328125 L 0.15625 -9.328125 Z M 0.15625 -10.875 "/></g></g></g><g fill="#000000" fill-opacity="1"><g transform="translate(50.418706, 75.401595)"><g><path d="M 6.15625 0 L 4.4375 0 L 4.140625 -1.96875 L 2.03125 -1.96875 L 1.734375 0 L 0.171875 0 L 1.90625 -10.875 L 4.421875 -10.875 Z M 2.25 -3.453125 L 3.90625 -3.453125 L 3.078125 -8.953125 Z M 2.25 -3.453125 "/></g></g></g><g fill="#000000" fill-opacity="1"><g transform="translate(57.864121, 75.401595)"><g><path d="M 2.25 -10.875 L 2.25 -2.484375 C 2.25 -2.085938 2.328125 -1.8125 2.484375 -1.65625 C 2.648438 -1.507812 2.867188 -1.4375 3.140625 -1.4375 C 3.410156 -1.4375 3.625 -1.507812 3.78125 -1.65625 C 3.945312 -1.8125 4.03125 -2.085938 4.03125 -2.484375 L 4.03125 -10.875 L 5.640625 -10.875 L 5.640625 -2.59375 C 5.640625 -1.71875 5.425781 -1.039062 5 -0.5625 C 4.570312 -0.09375 3.9375 0.140625 3.09375 0.140625 C 2.25 0.140625 1.613281 -0.09375 1.1875 -0.5625 C 0.757812 -1.039062 0.546875 -1.71875 0.546875 -2.59375 L 0.546875 -10.875 Z M 2.25 -10.875 "/></g></g></g><g fill="#000000" fill-opacity="1"><g transform="translate(65.169649, 75.401595)"><g><path d="M 4.203125 0 C 4.179688 -0.0703125 4.160156 -0.140625 4.140625 -0.203125 C 4.117188 -0.265625 4.097656 -0.34375 4.078125 -0.4375 C 4.066406 -0.53125 4.054688 -0.648438 4.046875 -0.796875 C 4.046875 -0.941406 4.046875 -1.125 4.046875 -1.34375 L 4.046875 -3.046875 C 4.046875 -3.554688 3.957031 -3.914062 3.78125 -4.125 C 3.601562 -4.332031 3.316406 -4.4375 2.921875 -4.4375 L 2.328125 -4.4375 L 2.328125 0 L 0.625 0 L 0.625 -10.875 L 3.203125 -10.875 C 4.097656 -10.875 4.742188 -10.664062 5.140625 -10.25 C 5.535156 -9.84375 5.734375 -9.21875 5.734375 -8.375 L 5.734375 -7.53125 C 5.734375 -6.40625 5.363281 -5.664062 4.625 -5.3125 C 5.050781 -5.132812 5.34375 -4.847656 5.5 -4.453125 C 5.664062 -4.054688 5.75 -3.570312 5.75 -3 L 5.75 -1.328125 C 5.75 -1.054688 5.757812 -0.816406 5.78125 -0.609375 C 5.800781 -0.410156 5.851562 -0.207031 5.9375 0 Z M 2.328125 -9.328125 L 2.328125 -5.984375 L 3 -5.984375 C 3.320312 -5.984375 3.570312 -6.066406 3.75 -6.234375 C 3.9375 -6.398438 4.03125 -6.703125 4.03125 -7.140625 L 4.03125 -8.203125 C 4.03125 -8.597656 3.957031 -8.882812 3.8125 -9.0625 C 3.675781 -9.238281 3.457031 -9.328125 3.15625 -9.328125 Z M 2.328125 -9.328125 "/></g></g></g><g fill="#000000" fill-opacity="1"><g transform="translate(72.537353, 75.401595)"><g><path d="M 6.15625 0 L 4.4375 0 L 4.140625 -1.96875 L 2.03125 -1.96875 L 1.734375 0 L 0.171875 0 L 1.90625 -10.875 L 4.421875 -10.875 Z M 2.25 -3.453125 L 3.90625 -3.453125 L 3.078125 -8.953125 Z M 2.25 -3.453125 "/></g></g></g><g fill="#000000" fill-opacity="1"><g transform="translate(79.982768, 75.401595)"><g><path d="M 2.140625 -7.875 L 2.140625 0 L 0.609375 0 L 0.609375 -10.875 L 2.75 -10.875 L 4.515625 -4.375 L 4.515625 -10.875 L 6.03125 -10.875 L 6.03125 0 L 4.28125 0 Z M 2.140625 -7.875 "/></g></g></g><g fill="#000000" fill-opacity="1"><g transform="translate(87.73904, 75.401595)"><g><path d="M 0.15625 -10.875 L 5.4375 -10.875 L 5.4375 -9.328125 L 3.65625 -9.328125 L 3.65625 0 L 1.9375 0 L 1.9375 -9.328125 L 0.15625 -9.328125 Z M 0.15625 -10.875 "/></g></g></g><path stroke-linecap="round" transform="matrix(0.745192, 0, 0, 0.745192, 7.254003, 78.5595)" fill="none" stroke-linejoin="miter" d="M 1.499064 1.497978 L 134.570844 1.497978 " stroke="#000000" stroke-width="3" stroke-opacity="1" stroke-miterlimit="4"/><g fill="#000000" fill-opacity="1"><g transform="translate(26.241124, 86.420399)"><g><path d="M 3.40625 -3.609375 L 1.28125 -3.609375 L 1.28125 -2.375 L 3.203125 -2.375 L 3.203125 -1.75 L 1.28125 -1.75 L 1.28125 0 L 0.5625 0 L 0.5625 -4.25 L 3.421875 -4.25 Z M 3.40625 -3.609375 "/></g></g></g><g fill="#000000" fill-opacity="1"><g transform="translate(30.177533, 86.420399)"><g><path d="M 3.265625 0 L 2.484375 -1.28125 C 2.441406 -1.28125 2.375 -1.28125 2.28125 -1.28125 L 1.28125 -1.28125 L 1.28125 0 L 0.5625 0 L 0.5625 -4.25 L 2.28125 -4.25 C 2.820312 -4.25 3.242188 -4.125 3.546875 -3.875 C 3.847656 -3.625 4 -3.265625 4 -2.796875 C 4 -2.460938 3.921875 -2.175781 3.765625 -1.9375 C 3.617188 -1.707031 3.40625 -1.535156 3.125 -1.421875 L 4.078125 0 Z M 1.28125 -1.921875 L 2.28125 -1.921875 C 2.96875 -1.921875 3.3125 -2.207031 3.3125 -2.78125 C 3.3125 -3.332031 2.96875 -3.609375 2.28125 -3.609375 L 1.28125 -3.609375 Z M 1.28125 -1.921875 "/></g></g></g><g fill="#000000" fill-opacity="1"><g transform="translate(35.01438, 86.420399)"><g><path d="M 3.59375 -3.609375 L 1.28125 -3.609375 L 1.28125 -2.46875 L 3.359375 -2.46875 L 3.359375 -1.8125 L 1.28125 -1.8125 L 1.28125 -0.640625 L 3.671875 -0.640625 L 3.671875 0 L 0.5625 0 L 0.5625 -4.25 L 3.59375 -4.25 Z M 3.59375 -3.609375 "/></g></g></g><g fill="#000000" fill-opacity="1"><g transform="translate(39.443596, 86.420399)"><g><path d="M 1.953125 -4.28125 C 2.503906 -4.28125 3.003906 -4.132812 3.453125 -3.84375 L 3.15625 -3.21875 C 2.71875 -3.476562 2.300781 -3.609375 1.90625 -3.609375 C 1.6875 -3.609375 1.515625 -3.566406 1.390625 -3.484375 C 1.265625 -3.410156 1.203125 -3.300781 1.203125 -3.15625 C 1.203125 -3.019531 1.257812 -2.898438 1.375 -2.796875 C 1.488281 -2.703125 1.628906 -2.628906 1.796875 -2.578125 C 1.972656 -2.535156 2.160156 -2.476562 2.359375 -2.40625 C 2.554688 -2.332031 2.738281 -2.253906 2.90625 -2.171875 C 3.082031 -2.097656 3.222656 -1.976562 3.328125 -1.8125 C 3.441406 -1.644531 3.5 -1.441406 3.5 -1.203125 C 3.5 -0.828125 3.347656 -0.523438 3.046875 -0.296875 C 2.753906 -0.078125 2.367188 0.03125 1.890625 0.03125 C 1.566406 0.03125 1.253906 -0.03125 0.953125 -0.15625 C 0.648438 -0.28125 0.382812 -0.445312 0.15625 -0.65625 L 0.46875 -1.265625 C 0.6875 -1.066406 0.921875 -0.914062 1.171875 -0.8125 C 1.429688 -0.707031 1.675781 -0.65625 1.90625 -0.65625 C 2.15625 -0.65625 2.347656 -0.695312 2.484375 -0.78125 C 2.628906 -0.875 2.703125 -1.003906 2.703125 -1.171875 C 2.703125 -1.316406 2.644531 -1.4375 2.53125 -1.53125 C 2.414062 -1.632812 2.273438 -1.707031 2.109375 -1.75 C 1.941406 -1.800781 1.757812 -1.859375 1.5625 -1.921875 C 1.363281 -1.992188 1.175781 -2.066406 1 -2.140625 C 0.832031 -2.210938 0.691406 -2.332031 0.578125 -2.5 C 0.460938 -2.664062 0.40625 -2.863281 0.40625 -3.09375 C 0.40625 -3.457031 0.546875 -3.742188 0.828125 -3.953125 C 1.117188 -4.171875 1.492188 -4.28125 1.953125 -4.28125 Z M 1.953125 -4.28125 "/></g></g></g><g fill="#000000" fill-opacity="1"><g transform="translate(43.665952, 86.420399)"><g><path d="M 4.25 0 L 3.53125 0 L 3.53125 -1.765625 L 1.28125 -1.765625 L 1.28125 0 L 0.5625 0 L 0.5625 -4.25 L 1.28125 -4.25 L 1.28125 -2.40625 L 3.53125 -2.40625 L 3.53125 -4.25 L 4.25 -4.25 Z M 4.25 0 "/></g></g></g><g fill="#000000" fill-opacity="1"><g transform="translate(48.916517, 86.420399)"><g/></g></g><g fill="#000000" fill-opacity="1"><g transform="translate(50.924274, 86.420399)"><g><path d="M 3.625 0.109375 L 2.96875 -0.53125 C 2.570312 -0.15625 2.144531 0.03125 1.6875 0.03125 C 1.300781 0.03125 0.976562 -0.0820312 0.71875 -0.3125 C 0.46875 -0.539062 0.34375 -0.820312 0.34375 -1.15625 C 0.34375 -1.4375 0.421875 -1.664062 0.578125 -1.84375 C 0.742188 -2.019531 0.972656 -2.1875 1.265625 -2.34375 C 0.992188 -2.707031 0.859375 -3.035156 0.859375 -3.328125 C 0.859375 -3.609375 0.957031 -3.835938 1.15625 -4.015625 C 1.363281 -4.191406 1.632812 -4.28125 1.96875 -4.28125 C 2.28125 -4.28125 2.535156 -4.195312 2.734375 -4.03125 C 2.941406 -3.863281 3.046875 -3.648438 3.046875 -3.390625 C 3.046875 -3.253906 3.015625 -3.125 2.953125 -3 C 2.898438 -2.882812 2.816406 -2.78125 2.703125 -2.6875 C 2.597656 -2.59375 2.492188 -2.515625 2.390625 -2.453125 C 2.296875 -2.390625 2.164062 -2.316406 2 -2.234375 C 2.207031 -2.003906 2.507812 -1.695312 2.90625 -1.3125 C 3.050781 -1.53125 3.175781 -1.785156 3.28125 -2.078125 L 3.734375 -1.734375 C 3.597656 -1.410156 3.453125 -1.140625 3.296875 -0.921875 L 3.984375 -0.25 Z M 1.40625 -3.328125 C 1.40625 -3.117188 1.507812 -2.867188 1.71875 -2.578125 C 1.96875 -2.703125 2.15625 -2.820312 2.28125 -2.9375 C 2.414062 -3.0625 2.484375 -3.210938 2.484375 -3.390625 C 2.484375 -3.523438 2.4375 -3.632812 2.34375 -3.71875 C 2.25 -3.800781 2.125 -3.84375 1.96875 -3.84375 C 1.800781 -3.84375 1.664062 -3.796875 1.5625 -3.703125 C 1.457031 -3.609375 1.40625 -3.484375 1.40625 -3.328125 Z M 1.703125 -0.5 C 2.003906 -0.5 2.296875 -0.632812 2.578125 -0.90625 C 2.097656 -1.394531 1.753906 -1.753906 1.546875 -1.984375 C 1.347656 -1.867188 1.191406 -1.75 1.078125 -1.625 C 0.972656 -1.507812 0.921875 -1.375 0.921875 -1.21875 C 0.921875 -1.007812 0.992188 -0.835938 1.140625 -0.703125 C 1.296875 -0.566406 1.484375 -0.5 1.703125 -0.5 Z M 1.703125 -0.5 "/></g></g></g><g fill="#000000" fill-opacity="1"><g transform="translate(55.396078, 86.420399)"><g/></g></g><g fill="#000000" fill-opacity="1"><g transform="translate(57.403834, 86.420399)"><g><path d="M 4.25 0 L 3.546875 0 L 1.28125 -3.046875 L 1.28125 0 L 0.5625 0 L 0.5625 -4.25 L 1.265625 -4.25 L 3.546875 -1.203125 L 3.546875 -4.25 L 4.25 -4.25 Z M 4.25 0 "/></g></g></g><g fill="#000000" fill-opacity="1"><g transform="translate(62.660488, 86.420399)"><g><path d="M 3.3125 -0.953125 L 1.15625 -0.953125 L 0.75 0 L 0 0 L 1.890625 -4.25 L 2.625 -4.25 L 4.484375 0 L 3.71875 0 Z M 3.03125 -1.59375 L 2.234375 -3.484375 L 1.421875 -1.59375 Z M 3.03125 -1.59375 "/></g></g></g><g fill="#000000" fill-opacity="1"><g transform="translate(67.588599, 86.420399)"><g><path d="M 3.46875 -3.609375 L 2.109375 -3.609375 L 2.109375 0 L 1.390625 0 L 1.390625 -3.609375 L 0.0625 -3.609375 L 0.0625 -4.25 L 3.46875 -4.25 Z M 3.46875 -3.609375 "/></g></g></g><g fill="#000000" fill-opacity="1"><g transform="translate(71.549339, 86.420399)"><g><path d="M 4.171875 -4.25 L 4.171875 -1.765625 C 4.171875 -1.210938 4.003906 -0.773438 3.671875 -0.453125 C 3.347656 -0.128906 2.898438 0.03125 2.328125 0.03125 C 1.753906 0.03125 1.300781 -0.128906 0.96875 -0.453125 C 0.632812 -0.773438 0.46875 -1.210938 0.46875 -1.765625 L 0.46875 -4.25 L 1.1875 -4.25 L 1.1875 -1.765625 C 1.1875 -1.410156 1.289062 -1.128906 1.5 -0.921875 C 1.707031 -0.710938 1.984375 -0.609375 2.328125 -0.609375 C 2.679688 -0.609375 2.957031 -0.707031 3.15625 -0.90625 C 3.351562 -1.113281 3.453125 -1.398438 3.453125 -1.765625 L 3.453125 -4.25 Z M 4.171875 -4.25 "/></g></g></g><g fill="#000000" fill-opacity="1"><g transform="translate(76.635633, 86.420399)"><g><path d="M 3.265625 0 L 2.484375 -1.28125 C 2.441406 -1.28125 2.375 -1.28125 2.28125 -1.28125 L 1.28125 -1.28125 L 1.28125 0 L 0.5625 0 L 0.5625 -4.25 L 2.28125 -4.25 C 2.820312 -4.25 3.242188 -4.125 3.546875 -3.875 C 3.847656 -3.625 4 -3.265625 4 -2.796875 C 4 -2.460938 3.921875 -2.175781 3.765625 -1.9375 C 3.617188 -1.707031 3.40625 -1.535156 3.125 -1.421875 L 4.078125 0 Z M 1.28125 -1.921875 L 2.28125 -1.921875 C 2.96875 -1.921875 3.3125 -2.207031 3.3125 -2.78125 C 3.3125 -3.332031 2.96875 -3.609375 2.28125 -3.609375 L 1.28125 -3.609375 Z M 1.28125 -1.921875 "/></g></g></g><g fill="#000000" fill-opacity="1"><g transform="translate(81.472479, 86.420399)"><g><path d="M 3.3125 -0.953125 L 1.15625 -0.953125 L 0.75 0 L 0 0 L 1.890625 -4.25 L 2.625 -4.25 L 4.484375 0 L 3.71875 0 Z M 3.03125 -1.59375 L 2.234375 -3.484375 L 1.421875 -1.59375 Z M 3.03125 -1.59375 "/></g></g></g><g fill="#000000" fill-opacity="1"><g transform="translate(86.40059, 86.420399)"><g><path d="M 1.28125 -0.65625 L 3.125 -0.65625 L 3.125 0 L 0.5625 0 L 0.5625 -4.25 L 1.28125 -4.25 Z M 1.28125 -0.65625 "/></g></g></g><g clip-path="url(#4a280a8a9a)"><path stroke-linecap="round" transform="matrix(0.745192, 0, 0, 0.745192, 7.254003, 87.989697)" fill="none" stroke-linejoin="miter" d="M 1.499064 1.502536 L 134.570844 1.502536 " stroke="#000000" stroke-width="3" stroke-opacity="1" stroke-miterlimit="4"/></g></svg>